<svg width="256" height="256" viewBox="0 0 256 256" xmlns="http://www.w3.org/2000/svg">
  <defs>
    <clipPath id="h"><rect x="128" y="0" width="128" height="256"/></clipPath>
    <clipPath id="sil"><path d="M28 110 A100 48 0 0 1 228 110 V148 Q228 198 128 198 Q28 198 28 148 Z"/></clipPath>
  </defs>
  <g clip-path="url(#h)">
    <path d="M28 110 V148 Q28 198 128 198 Q228 198 228 148 V110 Z" fill="#DBA844" stroke="#B07F26" stroke-width="7" stroke-linejoin="round"/>
    <path d="M30 168 Q30 196 128 196 Q226 196 226 168" fill="none" stroke="#C5942F" stroke-width="10" opacity="0.5"/>
    <ellipse cx="128" cy="110" rx="100" ry="48" fill="#E8C063" stroke="#B07F26" stroke-width="7"/>
    <g stroke="#C99A38" stroke-width="3" opacity="0.55" stroke-linecap="round">
      <line x1="128" y1="110" x2="200" y2="98"/>
      <line x1="128" y1="110" x2="174" y2="142"/>
    </g>
    <path d="M128 70 A100 48 0 0 1 162 70" fill="none" stroke="#F6DE9A" stroke-width="10" stroke-linecap="round" opacity="0.7"/>
    <g clip-path="url(#sil)"><rect x="128" y="0" width="13" height="256" fill="#F2D285" opacity="0.7"/></g>
  </g>
</svg>
